<svg preserveAspectRatio="none" overflow="visible" style="display: block;" width="24" height="24" viewBox="0 0 24 24" fill="none" xmlns="http://www.w3.org/2000/svg">
<g id="icon">
<g id="Bounding box">
</g>
<path id="shape" fill-rule="evenodd" clip-rule="evenodd" d="M17.5 2C19.433 2 21 3.567 21 5.5C21 7.433 19.433 9 17.5 9C16.5345 9 15.6603 8.60904 15.027 7.97679L8.92617 11.2814C8.97456 11.5134 9 11.7537 9 12C9 12.2463 8.97456 12.4866 8.92617 12.7186L15.027 16.0232C15.6603 15.391 16.5345 15 17.5 15C19.433 15 21 16.567 21 18.5C21 20.433 19.433 22 17.5 22C15.567 22 14 20.433 14 18.5C14 18.2537 14.0254 18.0134 14.0738 17.7814L7.97295 14.4768C7.33973 15.109 6.46552 15.5 5.5 15.5C3.567 15.5 2 13.933 2 12C2 10.067 3.567 8.5 5.5 8.5C6.46552 8.5 7.33973 8.89096 7.97295 9.52321L14.0738 6.21856C14.0254 5.98664 14 5.74629 14 5.5C14 3.567 15.567 2 17.5 2ZM17.5 4C16.6716 4 16 4.67157 16 5.5C16 6.32843 16.6716 7 17.5 7C18.3284 7 19 6.32843 19 5.5C19 4.67157 18.3284 4 17.5 4ZM5.5 10.5C4.67157 10.5 4 11.1716 4 12C4 12.8284 4.67157 13.5 5.5 13.5C6.32843 13.5 7 12.8284 7 12C7 11.1716 6.32843 10.5 5.5 10.5ZM16 18.5C16 17.6716 16.6716 17 17.5 17C18.3284 17 19 17.6716 19 18.5C19 19.3284 18.3284 20 17.5 20C16.6716 20 16 19.3284 16 18.5Z" fill="white"/>
</g>
</svg>
